<?xml version="1.0" encoding="UTF-8" standalone="no"?>
<svg width="58px" height="32px" viewBox="0 0 58 32" version="1.1" xmlns="http://www.w3.org/2000/svg" xmlns:xlink="http://www.w3.org/1999/xlink">
    <!-- Generator: Sketch 45.2 (43514) - http://www.bohemiancoding.com/sketch -->
    <title>tispr-logotype-indigo</title>
    <desc>Created with Sketch.</desc>
    <defs></defs>
    <g id="Symbols" stroke="none" stroke-width="1" fill="none" fill-rule="evenodd">
        <g id="primitives/graphics/logos/tispr-logotype-indigo" fill-rule="nonzero" fill="#675DC6">
            <g id="logo" transform="translate(0.000000, 2.000000)">
                <path d="M57.698514,6.20629499 C57.7480123,6.23929385 57.7480123,6.32179101 57.7480123,6.32179101 L57.7480123,9.29168879 C57.7480123,9.29168879 57.7480123,9.34118708 57.7480123,9.44018368 C57.7480123,9.57217913 57.6160169,9.62167743 57.5005208,9.58867856 C57.3685254,9.5556797 57.2365299,9.53918027 57.1045345,9.52268084 C56.246564,9.42368424 55.2730975,9.5061814 54.5306231,9.95166607 C54.0026412,10.2651553 53.6066549,10.6281428 53.3096651,11.0736275 C52.5011929,12.2945854 52.5011929,13.7795343 52.5176924,15.181986 C52.5506912,17.1454185 52.5671906,19.1253503 52.5671906,21.0887827 C52.5671906,21.3197748 52.3856969,21.517768 52.1382054,21.517768 L49.2508048,21.517768 C49.0198127,21.517768 48.8218196,21.3362742 48.8218196,21.0887827 C48.8218196,21.0887827 48.8218196,8.94520071 48.8218196,8.92870128 C48.8218196,8.6812098 49.0528116,8.58221321 49.2508048,8.49971605 C49.2673042,8.49971605 49.2838037,8.48321661 49.3003031,8.48321661 C49.6467912,8.36772059 49.9767798,8.23572513 50.3232679,8.10372968 C50.6037582,7.98823365 50.8842486,7.88923706 51.1647389,7.79024047 C51.2967344,7.74074217 51.4122304,7.70774331 51.5277264,7.65824501 C51.6597219,7.60874671 51.7917173,7.54274898 51.9237128,7.50975012 C52.1877037,7.44375239 52.4186958,7.67474444 52.4186958,7.92223592 L52.4186958,9.02769787 C52.4186958,9.02769787 52.4351952,9.04419731 52.4351952,9.04419731 C52.4351952,9.04419731 52.4516946,9.04419731 52.4516946,9.04419731 C52.4516946,9.04419731 52.4681941,9.04419731 52.4681941,9.04419731 C52.4681941,9.04419731 52.4846935,9.02769787 52.4846935,9.02769787 C52.5011929,8.99469901 52.5176924,8.94520071 52.5341918,8.91220185 C52.5506912,8.87920298 52.5671906,8.82970469 52.5836901,8.79670582 C52.6166889,8.7307081 52.6661872,8.64821094 52.6991861,8.58221321 C52.7486844,8.49971605 52.7816833,8.43371832 52.8311816,8.36772059 C52.8641804,8.30172286 52.9136787,8.23572513 52.963177,8.1697274 C53.0126753,8.10372968 53.0621736,8.03773195 53.1116719,7.97173422 C53.1611702,7.92223592 53.2106685,7.85623819 53.2601668,7.79024047 C53.3096651,7.72424274 53.3756628,7.67474444 53.4251611,7.60874671 C53.4746594,7.55924842 53.5406571,7.49325069 53.5901554,7.44375239 C53.6561532,7.37775466 53.7056515,7.32825637 53.7716492,7.27875807 C53.8376469,7.22925978 53.8871452,7.17976148 53.9531429,7.13026318 C54.0026412,7.08076489 54.068639,7.03126659 54.1346367,6.98176829 C54.2006344,6.93227 54.2666322,6.89927113 54.3326299,6.84977284 C54.3986276,6.80027454 54.4646253,6.75077624 54.5306231,6.71777738 C54.6131202,6.68477852 54.679118,6.63528022 54.7451157,6.60228136 C54.8111134,6.56928249 54.8936106,6.53628363 54.9596083,6.50328476 C55.025606,6.4702859 55.0916038,6.43728703 55.1741009,6.40428817 C55.2565981,6.37128931 55.3225958,6.35478987 55.405093,6.32179101 C55.4875901,6.30529158 55.5535879,6.27229271 55.636085,6.25579328 C55.7185822,6.22279442 55.7845799,6.20629499 55.8670771,6.18979555 C55.9495742,6.17329612 56.0320714,6.15679669 56.1145685,6.14029726 C56.1970657,6.12379782 56.2795629,6.12379782 56.36206,6.10729839 C56.4445572,6.10729839 56.5270543,6.09079896 56.6095515,6.09079896 C56.6920487,6.09079896 56.7745458,6.09079896 56.857043,6.09079896 C57.0055379,6.09079896 57.1540328,6.09079896 57.3190271,6.10729839 C57.4510225,6.12379782 57.583018,6.12379782 57.698514,6.20629499 Z M39.4336427,6.09079896 C44.0699831,5.9588035 47.8318536,9.98466493 47.3368707,14.8189985 C46.9573837,18.4983719 44.0369843,21.4682697 40.4401081,21.8312572 C38.9386597,21.9797521 37.536208,21.6992617 36.2987506,21.0887827 C36.1667551,21.022785 36.0347597,21.0887827 36.0017608,21.2207782 C35.8697654,21.8807555 35.5562762,23.9431845 35.5067779,28.7610187 C35.4902784,29.4044965 34.6653068,29.4044965 34.4178153,28.810517 C34.4013159,28.7940175 34.4013159,28.7775181 34.4013159,28.7775181 C32.8998676,24.2236748 31.7944056,19.3233435 31.6294113,14.5055093 C31.5304147,11.8161019 32.1078949,8.6317115 34.5168119,7.03126659 C35.7707688,6.20629499 35.8697654,6.53628363 35.7707688,7.14676261 C35.7707688,7.16326205 35.7872682,7.17976148 35.8037676,7.16326205 C36.8762307,6.5197842 38.1136881,6.12379782 39.4336427,6.09079896 Z M44.4989684,14.835498 C45.059949,11.3706172 42.1230501,8.43371832 38.6911683,8.99469901 C36.5627415,9.34118708 34.8633,11.0901269 34.5498108,13.2350531 C34.3518176,14.6210054 34.7313046,15.9079611 35.4572796,16.9309258 C35.5232773,17.013423 35.5562762,17.1124196 35.5397767,17.2279156 C35.4407801,17.854894 35.0777926,18.3993753 34.5498108,18.7128645 C34.4673136,18.7623628 34.4838131,18.8778588 34.5663102,18.9108577 C34.7643034,18.9933549 34.978796,19.0263537 35.1932887,19.0263537 C35.7707688,19.0263537 36.2987506,18.7623628 36.6617381,18.349877 C36.7442353,18.2673798 36.8432319,18.2508804 36.9422285,18.3003787 C37.9321944,18.8943583 39.1696518,19.1583492 40.4566075,18.9273571 C42.5190365,18.5643696 44.1524803,16.897927 44.4989684,14.835498 Z M43.5255019,14.0930235 C43.6739967,14.3735139 43.5420013,14.7200019 43.2615109,14.8684968 L37.8166984,17.4094094 C37.5197086,17.5414048 37.1732205,17.4259088 37.041225,17.128919 L35.5067779,13.845532 C35.3747824,13.5485423 35.4902784,13.2020542 35.7872682,13.0700587 L37.0247256,12.4925786 L36.8927302,12.2285877 C36.6782375,11.783103 36.8762307,11.2386218 37.3217154,11.0406286 L38.6746688,10.4136502 C39.1201535,10.1991576 39.6481353,10.3971507 39.8626279,10.8426354 L39.9946234,11.1066263 L41.2320808,10.5291462 C41.5290706,10.3971507 41.8755587,10.5126468 42.0075541,10.8096365 L43.5255019,14.0930235 Z M37.5857063,11.5686104 C37.4372114,11.6511076 37.3712137,11.8161019 37.4372114,11.9810962 L37.5692069,12.2450871 L39.4666416,11.3541178 L39.3346461,11.0901269 C39.2686484,10.941632 39.0871546,10.8756343 38.9386597,10.941632 L37.5857063,11.5686104 Z M40.1596177,15.3139815 C41.7270638,14.5880065 42.4035405,12.7235707 41.6775655,11.1561246 C41.6115677,11.0076297 41.430074,10.941632 41.2815791,11.0076297 C41.1330842,11.0736275 41.0670865,11.2551212 41.1330842,11.4036161 C41.7270638,12.6740724 41.1825825,14.1920201 39.9121262,14.7859997 C38.64167,15.3634798 37.1237222,14.8189985 36.5297427,13.5485423 C36.4637449,13.4000474 36.2822512,13.3340496 36.1337563,13.4000474 C35.9852614,13.4660451 35.9192637,13.6475389 35.9852614,13.7960337 C36.7277358,15.3634798 38.5921717,16.0399565 40.1596177,15.3139815 Z M29.7814749,15.0829895 C30.0784647,15.5944718 30.2104602,16.2214503 30.243459,16.9474253 C30.243459,18.960356 29.1544965,20.6267986 27.2735612,21.3692731 C25.1946328,22.2107441 22.6702197,22.1117475 20.6077907,21.3032754 C19.6508236,20.9402878 18.8423514,20.4453049 18.1658747,19.801827 C18.0008804,19.6203333 18.0008804,19.3398429 18.1823742,19.1748486 L19.9973117,17.4754071 C20.1788054,17.3104128 20.4427964,17.3269122 20.6077907,17.4919065 C20.9872776,17.9043923 21.4327623,18.234381 21.9607441,18.5148713 C22.6207214,18.8613594 23.3631958,19.0428532 24.171668,19.0428532 C24.4356589,19.0428532 24.7161493,19.0098543 24.9966396,18.9438566 C25.27713,18.8778588 25.5246214,18.7788622 25.7721129,18.6468668 C25.9866055,18.5148713 26.1680993,18.349877 26.3165942,18.1353844 C26.5475862,17.7888963 26.6300834,17.3434116 26.5310868,16.9309258 C26.234097,15.7264673 24.666651,15.5119747 23.6436862,15.2479838 C22.5712231,14.9674934 21.4822606,14.7200019 20.541793,14.1425218 C18.6608577,13.004061 18.1823742,10.5621451 19.2218384,8.6812098 C19.8983151,7.44375239 21.1192731,6.70127795 22.4557271,6.35478987 C23.1652027,6.17329612 23.8911777,6.07429953 24.6336521,6.07429953 C26.4980879,6.07429953 28.6100152,6.60228136 29.9464692,8.00473308 C30.1114636,8.18622684 30.1114636,8.46671718 29.9299698,8.6317115 L28.18103,10.2321564 C28.0160357,10.3806513 27.7520448,10.3806513 27.5870505,10.215657 C27.2735612,9.88566834 26.8775749,9.605178 26.4320902,9.35768652 C25.3431277,8.74720753 23.3631958,8.54921434 22.4392276,9.605178 C22.0762401,10.0176638 22.0432413,10.5786445 22.2577339,11.057128 C22.5382242,11.7006059 23.3466964,11.9315979 23.9736748,12.0965922 C25.0131391,12.3770826 26.0691027,12.6080746 27.0755681,12.9710621 C27.6530482,13.1690553 28.18103,13.4495457 28.6430141,13.7960337 C29.1049982,14.1425218 29.4844851,14.5715071 29.7814749,15.0829895 Z M11.9620883,2.49392276 C11.9620883,1.88344378 12.1930803,1.37196138 12.638565,0.926476716 C13.0840496,0.480992049 13.6450303,0.25 14.3380065,0.25 C15.0309826,0.25 15.6084628,0.464492617 16.0704469,0.893477852 C16.532431,1.32246309 16.7799224,1.85044491 16.7799224,2.49392276 C16.7799224,3.13740062 16.5489304,3.68188188 16.0704469,4.09436768 C15.6084628,4.52335291 15.0309826,4.73784553 14.3380065,4.73784553 C13.6450303,4.73784553 13.0840496,4.50685348 12.638565,4.06136881 C12.1765809,3.63238358 11.9620883,3.10440175 11.9620883,2.49392276 Z M12.9190553,7.52624955 L15.6744605,6.56928249 C15.8229554,6.5197842 16.0044491,6.53628363 16.1034457,6.65177965 C16.1859429,6.73427681 16.2354412,6.8332734 16.2354412,6.96526886 L16.2354412,21.0722833 C16.2354412,21.3197748 16.037448,21.5012685 15.8064559,21.5012685 L12.9190553,21.5012685 C12.6715638,21.5012685 12.4900701,21.3032754 12.4900701,21.0722833 L12.4900701,7.95523479 C12.4900701,7.72424274 12.6880633,7.59224728 12.9190553,7.52624955 Z M6.41827908,9.52268084 C6.35228136,9.52268084 6.30278306,9.57217913 6.30278306,9.62167743 L6.30278306,16.4854412 C6.30278306,17.1454185 6.41827908,17.7063992 6.66577057,18.1353844 C6.89676261,18.5808691 7.44124387,18.7953617 8.26621548,18.7953617 C8.51370696,18.7953617 8.77769787,18.7623628 9.07468765,18.7128645 C9.17368424,18.6963651 9.27268084,18.6633662 9.355178,18.6468668 C9.61916891,18.5808691 9.86666039,18.7953617 9.88315982,19.0593526 L9.96565698,21.0887827 C9.98215642,21.2867759 9.85016096,21.4682697 9.65216777,21.517768 C9.38817686,21.5837657 9.10768652,21.6497634 8.79419731,21.6992617 C8.34871264,21.7817589 7.90322797,21.8147577 7.49074217,21.8147577 C6.48427681,21.8147577 5.67580464,21.6827623 5.04882622,21.4022719 C4.4218478,21.1217816 3.92686484,20.7422947 3.56387733,20.2473117 C3.20088983,19.7523287 2.95339834,19.2078475 2.82140289,18.5643696 C2.68940743,17.9208918 2.6234097,17.2444151 2.6234097,16.51844 L2.6234097,9.63817686 C2.6234097,9.57217913 2.57391141,9.52268084 2.50791368,9.52268084 L0.428985234,9.52268084 C0.197993185,9.52268084 0,9.34118708 0,9.0936956 L0,6.96526886 C0,6.73427681 0.181493753,6.53628363 0.428985234,6.53628363 L2.50791368,6.53628363 C2.57391141,6.53628363 2.6234097,6.48678533 2.6234097,6.4207876 L2.6234097,3.63238358 C2.6234097,3.40139153 2.83790232,3.26939607 3.05239494,3.20339834 L5.74180237,2.24643128 C5.87379782,2.19693299 6.00579328,2.19693299 6.12128931,2.27943015 C6.23678533,2.36192731 6.30278306,2.47742333 6.30278306,2.62591822 L6.30278306,6.4207876 C6.30278306,6.48678533 6.35228136,6.53628363 6.41827908,6.53628363 L9.61916891,6.53628363 C9.85016096,6.53628363 10.0481541,6.71777738 10.0481541,6.96526886 L10.0481541,9.0936956 C10.0481541,9.32468765 9.85016096,9.52268084 9.61916891,9.52268084 L6.41827908,9.52268084 Z" id="tispr-logotype"></path>
            </g>
        </g>
    </g>
</svg>